<?xml version="1.0" standalone="no"?>
<!DOCTYPE svg PUBLIC "-//W3C//DTD SVG 20010904//EN"
 "http://www.w3.org/TR/2001/REC-SVG-20010904/DTD/svg10.dtd">
<svg version="1.0" xmlns="http://www.w3.org/2000/svg"
 width="1080.000000pt" height="1080.000000pt" viewBox="0 0 1080.000000 1080.000000"
 preserveAspectRatio="xMidYMid meet">

<g transform="translate(0.000000,1080.000000) scale(0.100000,-0.100000)"
fill="#1c1c1c" stroke="none">
<path d="M3965 7188 c-11 -6 -25 -19 -32 -27 -10 -12 -12 -384 -13 -1663 0
-905 3 -1654 6 -1663 4 -8 19 -22 35 -31 26 -13 32 -13 58 0 16 9 31 23 35 31
3 9 6 758 6 1665 0 1555 -1 1649 -17 1668 -23 26 -53 34 -78 20z"/>
<path d="M5291 6438 c-416 -413 -789 -784 -828 -823 -124 -124 -209 -14 755
-977 756 -757 830 -828 860 -828 19 0 40 8 52 20 49 49 76 19 -781 876 l-800
801 800 794 c634 629 801 800 801 820 0 42 -26 69 -67 69 -35 0 -71 -35 -792
-752z"/>
<path d="M6665 4061 c-71 -44 -101 -106 -85 -178 17 -75 80 -123 161 -123 86
0 153 70 153 160 0 121 -131 202 -229 141z"/>
</g>
</svg>
